# xmcd
#
# Track frame offsets: 
#        150
#        18350
#        40325
#        68091
#        84274
#        113077
#        134382
#        151084
#        176012
#        198892
#        216830
#        235625
#        256892
#        267162
#        295805
#        316196
#        337226
#
# Disc length: 4783 seconds
#
# Revision: 4
# Processed by: cddbd v1.5.2PL0 Copyright (c) Steve Scherf et al.
# Submitted via: ExactAudioCopy v1.3
#
DISCID=e712ad11
DTITLE=Various Artist - Akella Presents - vol.82 - Women's Blues  CD2
DYEAR=2016
DGENRE=Blues
TTITLE0=Sista Monica - Behind My Back
TTITLE1=Kim Lembo - Love to Ride
TTITLE2=Born Healer - 'Til The Dawn
TTITLE3=Barbara Blue - Tool Box Blues
TTITLE4=Karen Lawrence - It's a Man's, Man's, Man's, Man's World
TTITLE5=Janiva Magness - Moth To A Flame
TTITLE6=Amanda Fish - I Don't Need It
TTITLE7=Ida Bang and The Blue Tears - Lazy Blues
TTITLE8=Danielle Schnebelen - Wrong Side Of The Blues
TTITLE9=Jessy Martens - Undone
TTITLE10=Gail Wynters - Seek And Ye Shall Find
TTITLE11=Ann Rabson - Gonna Stop You From Giving Me The Blues
TTITLE12=Ana Popovic - Wasted
TTITLE13=Keri Leigh and the Blue Devils - Full Moon Blues
TTITLE14=Lisa Mann - Hard Times, Bad Decisions
TTITLE15=Olga - Kiss Your Blues Away
TTITLE16=Lucinda Williams - Protection
EXTD=
EXTT0=
EXTT1=
EXTT2=
EXTT3=
EXTT4=
EXTT5=
EXTT6=
EXTT7=
EXTT8=
EXTT9=
EXTT10=
EXTT11=
EXTT12=
EXTT13=
EXTT14=
EXTT15=
EXTT16=
PLAYORDER=
